<svg width="52" height="70" viewBox="0 0 52 70" fill="none" xmlns="http://www.w3.org/2000/svg">
<path d="M51.1333 0H0.866667C0.388053 0 0 0.391357 0 0.875V69.125C0 69.6086 0.388053 70 0.866667 70H51.1333C51.6119 70 52 69.6086 52 69.125V0.875C52 0.391357 51.6119 0 51.1333 0ZM1.73333 45.8879V25.4677L50.2667 47.2697V67.6899L1.73333 45.8879ZM50.2667 24.142V45.3535L1.73333 23.5515V2.33917L50.2667 24.142ZM50.2667 22.2258L4.68748 1.75H50.2667V22.2258ZM1.73333 47.8041L47.2477 68.25H1.73333V47.8041Z" fill="#AAAAAA"/>
</svg>
