<svg width="48" height="70" viewBox="0 0 48 70" fill="none" xmlns="http://www.w3.org/2000/svg">
<path d="M24.8749 30.302V0.875C24.8749 0.391357 24.4832 0 24 0C23.5168 0 23.1251 0.391357 23.1251 0.875V30.302C10.2959 30.7649 0 41.3407 0 54.2816V59.9503C0 60.434 0.391748 60.8253 0.874918 60.8253H13.4631C14.1875 66.024 18.6757 70 23.9996 70C29.3265 70 33.8122 66.0248 34.5361 60.8253H47.1251C47.6083 60.8253 48 60.434 48 59.9503V54.2816C48 41.3407 37.7041 30.7649 24.8749 30.302ZM23.9996 68.25C19.6324 68.25 15.93 65.0512 15.2231 60.8253H32.7765C32.0698 65.0527 28.3696 68.25 23.9996 68.25ZM46.2502 59.0753H1.74984V54.2816C1.74984 42.012 11.7311 32.0298 24 32.0298C36.2689 32.0298 46.2502 42.012 46.2502 54.2816V59.0753Z" fill="#AAAAAA"/>
</svg>
