<svg width="70" height="70" viewBox="0 0 70 70" fill="none" xmlns="http://www.w3.org/2000/svg">
<path fill-rule="evenodd" clip-rule="evenodd" d="M69.125 14.3623H48.2395C51.0862 12.4755 52.9695 9.24625 52.9695 5.5824V0.875C52.9695 0.391785 52.5778 0 52.0945 0H17.9055C17.4222 0 17.0305 0.391785 17.0305 0.875V5.5824C17.0305 9.24625 18.9138 12.4755 21.7605 14.3623H0.875C0.391785 14.3623 0 14.7541 0 15.2373V56.7302C0 57.2134 0.391785 57.6052 0.875 57.6052H11.2836V69.125C11.2836 69.6082 11.6754 70 12.1586 70C12.6418 70 13.0336 69.6082 13.0336 69.125V57.6052H56.9664V69.125C56.9664 69.6082 57.3582 70 57.8414 70C58.3246 70 58.7164 69.6082 58.7164 69.125V57.6052H69.125C69.6082 57.6052 70 57.2134 70 56.7302V15.2373C70 14.7541 69.6082 14.3623 69.125 14.3623ZM18.7805 5.5824V1.75H51.2195V5.5824C51.2195 10.4235 47.2812 14.3623 42.4401 14.3623H27.5599C22.7188 14.3623 18.7805 10.4235 18.7805 5.5824ZM1.75 16.1123H34.125V55.8552H1.75V16.1123ZM68.25 55.8552H35.875V16.1123H68.25V55.8552ZM44 40C44.5522 40 45 39.5938 45 39.0927V32.9073C45 32.4062 44.5522 32 44 32C43.4478 32 43 32.4062 43 32.9073V39.0927C43 39.5938 43.4478 40 44 40ZM25 32.9073C25 32.4062 25.4478 32 26 32C26.5522 32 27 32.4062 27 32.9073V39.0927C27 39.5938 26.5522 40 26 40C25.4478 40 25 39.5938 25 39.0927V32.9073Z" fill="#AAAAAA"/>
</svg>
