<svg width="68" height="70" viewBox="0 0 68 70" fill="none" xmlns="http://www.w3.org/2000/svg">
<path d="M30.2322 54.5524C30.2322 55.0545 30.642 55.4616 31.1474 55.4616H37.3871C37.8925 55.4616 38.3023 55.0545 38.3023 54.5524C38.3023 54.0503 37.8925 53.6432 37.3871 53.6432H31.1474C30.642 53.6432 30.2322 54.0503 30.2322 54.5524Z" fill="#AAAAAA"/>
<path d="M30.2322 39.0959C30.2322 39.598 30.642 40.0051 31.1474 40.0051H37.3871C37.8925 40.0051 38.3023 39.598 38.3023 39.0959C38.3023 38.5938 37.8925 38.1867 37.3871 38.1867H31.1474C30.642 38.1867 30.2322 38.5938 30.2322 39.0959Z" fill="#AAAAAA"/>
<path fill-rule="evenodd" clip-rule="evenodd" d="M37.9886 32.3936H67.0847C67.5906 32.3936 68 32.8007 68 33.3028V65.3035C68 65.8056 67.5906 66.2127 67.0847 66.2127H64.0967V69.0908C64.0967 69.5929 63.6869 70 63.1815 70C62.676 70 62.2662 69.5929 62.2662 69.0908V66.2127H6.43542V69.0908C6.43542 69.5929 6.0256 70 5.52016 70C5.01471 70 4.6049 69.5929 4.6049 69.0908V66.2127H0.915259C0.409364 66.2127 0 65.8056 0 65.3035L0.000223452 33.3028C0.000223452 32.8007 0.409587 32.3936 0.915483 32.3936H29.846V28.3696H9.53246C9.02656 28.3696 8.6172 27.9625 8.6172 27.4604V0.909206C8.6172 0.407101 9.02656 0 9.53246 0H58.9636C59.4695 0 59.8789 0.407101 59.8789 0.909206V27.4604C59.8789 27.9625 59.4695 28.3696 58.9636 28.3696H37.9886V32.3936ZM58.0483 1.81841H10.4477V26.5512H58.0483V1.81841ZM36.1581 28.3696H31.6765V32.3936H36.1581V28.3696ZM66.1695 64.3943V50.0063H1.83052V64.3943H66.1695ZM1.83052 48.1879H66.1695V34.212H1.83052V48.1879Z" fill="#AAAAAA"/>
</svg>
