<svg width="70" height="70" viewBox="0 0 70 70" fill="none" xmlns="http://www.w3.org/2000/svg">
<path d="M53.0879 0H16.9121C11.7305 0 7.5144 4.21606 7.5144 9.39771V23.6712C3.29802 24.1102 0 27.6837 0 32.0144C0 34.918 1.49622 37.5968 3.9375 39.1263V69.125C3.9375 69.6086 4.32886 70 4.8125 70C24.9375 70 45.0625 70 65.1875 70C65.6711 70 66.0625 69.6086 66.0625 69.125V39.1263C68.5038 37.5968 70 34.918 70 32.0144C70 27.6837 66.702 24.1102 62.4856 23.6712V9.39771C62.4856 4.21606 58.2695 0 53.0879 0ZM16.9121 1.75H53.0879C57.3048 1.75 60.7356 5.18079 60.7356 9.39771V23.6712C56.5192 24.1102 53.2212 27.6837 53.2212 32.0144V39.2258C34.8242 32.9973 20.5994 37.6272 16.7788 39.1436V32.0144C16.7788 27.6837 13.4808 24.1102 9.2644 23.6712V9.39771C9.2644 5.18079 12.6952 1.75 16.9121 1.75ZM16.7788 41.0413C18.8576 40.1581 33.8941 34.3219 53.2212 41.0726V52.9375H16.7788V41.0413ZM15.0288 68.25H5.6875V38.6248C5.6875 38.3035 5.51147 38.0087 5.22949 37.8557C3.08301 36.691 1.75 34.4531 1.75 32.0144C1.75 28.3538 4.72876 25.375 8.3894 25.375C12.05 25.375 15.0288 28.3538 15.0288 32.0144V68.25ZM16.7788 68.25V54.6875H53.2212V68.25H16.7788ZM68.25 32.0144C68.25 34.4531 66.917 36.691 64.7705 37.8557C64.4885 38.0087 64.3125 38.3035 64.3125 38.6248V68.25H54.9712V32.0144C54.9712 28.3538 57.95 25.375 61.6106 25.375C65.2712 25.375 68.25 28.3538 68.25 32.0144Z" fill="#AAAAAA"/>
</svg>
