<svg width="63" height="70" viewBox="0 0 63 70" fill="none" xmlns="http://www.w3.org/2000/svg">
<path fill-rule="evenodd" clip-rule="evenodd" d="M0 61.6122C0 61.1284 0.390186 60.7369 0.871431 60.7369H3.18276V26.7712H1.64542C1.16418 26.7712 0.77399 26.3797 0.77399 25.8959C0.77399 25.4121 1.16418 25.0206 1.64542 25.0206H10.1155V21.4794C10.1155 9.63575 19.7085 0 31.5 0C43.2915 0 52.8845 9.63575 52.8845 21.4794V25.0206H61.2065C61.6877 25.0206 62.0779 25.4121 62.0779 25.8959C62.0779 26.3797 61.6877 26.7712 61.2065 26.7712H59.6696V60.7369H62.1286C62.6098 60.7369 63 61.1284 63 61.6122V69.1247C63 69.6085 62.6098 70 62.1286 70H0.871431C0.390186 70 0 69.6085 0 69.1247V61.6122ZM1.74286 62.4875V68.2494H61.2571V62.4875H1.74286ZM31.5 1.75056C20.6697 1.75056 11.8583 10.6008 11.8583 21.4794V35.2787C11.8583 46.1572 20.6697 55.0075 31.5 55.0075C42.3303 55.0075 51.1417 46.1572 51.1417 35.2787V21.4794C51.1417 10.6008 42.3303 1.75056 31.5 1.75056ZM10.1155 26.7712H4.92562V60.7369H57.9267V26.7712H52.8845V35.2787C52.8845 47.1223 43.2915 56.758 31.5 56.758C19.7085 56.758 10.1155 47.1223 10.1155 35.2787V26.7712ZM34.8283 37C35.0402 37 35.2522 36.9191 35.414 36.7573L39.7573 32.4139C40.0809 32.0903 40.0809 31.5662 39.7573 31.2427C39.4338 30.9191 38.9096 30.9191 38.586 31.2427L34.2427 35.5861C33.9191 35.9097 33.9191 36.4338 34.2427 36.7573C34.4044 36.9191 34.6164 37 34.8283 37ZM37.2684 41.7316C37.4473 41.9105 37.6817 42 37.9161 42C38.1504 42 38.3848 41.9105 38.5637 41.7316L45.7316 34.5637C46.0895 34.2058 46.0895 33.6262 45.7316 33.2684C45.3738 32.9105 44.7941 32.9105 44.4363 33.2684L37.2684 40.4363C36.9105 40.7942 36.9105 41.3738 37.2684 41.7316Z" fill="#AAAAAA"/>
</svg>
