<svg width="0" height="0" class="hidden">
  <symbol fill="currentColor" xmlns="http://www.w3.org/2000/svg" viewBox="0 0 29 29" id="link">
    <path d="M25.3952 25.0307C25.3952 25.583 25.8429 26.0307 26.3952 26.0307H28C28.5523 26.0307 29 25.583 29 25.0307L29 1.80241C29 0.806963 28.193 0 27.1976 1.34982e-06L3.96926 5.57126e-08C3.41697 2.49434e-08 2.96926 0.447716 2.96926 1L2.96926 2.60482C2.96926 3.1571 3.41697 3.60482 3.96925 3.60482L22.0801 3.60482C22.0801 3.60482 5.05262 21.3041 0.7013 25.7408C0.314587 26.1351 0.316583 26.7676 0.707107 27.1581L1.84188 28.2929C2.23241 28.6834 2.86448 28.6841 3.25393 28.2925C7.6819 23.8403 25.3952 5.93445 25.3952 5.93445V25.0307Z"></path>
  </symbol>
  <symbol fill="currentColor" xmlns="http://www.w3.org/2000/svg" viewBox="0 0 36 36" id="plus">
    <path d="M36 18.8216C36 19.3719 35.5538 19.8181 35.0035 19.8181L0.996508 19.8181C0.446154 19.8181 -7.26836e-07 19.3719 -7.50893e-07 18.8216L-8.32377e-07 16.9574C-8.56433e-07 16.4071 0.44615 15.9609 0.996504 15.9609L35.0035 15.9609C35.5538 15.9609 36 16.4071 36 16.9574L36 18.8216Z"></path>
    <path d="M17.178 36C16.6277 36 16.1815 35.5538 16.1815 35.0035L16.1815 0.996508C16.1815 0.446154 16.6277 -2.41632e-07 17.178 -2.65688e-07L19.0422 -3.47172e-07C19.5925 -3.71229e-07 20.0387 0.44615 20.0387 0.996504L20.0387 35.0035C20.0387 35.5538 19.5925 36 19.0422 36L17.178 36Z"></path>
  </symbol>
  <symbol fill="currentColor" xmlns="http://www.w3.org/2000/svg" viewBox="0 0 9 16" id="caret-right">
    <path fill-rule="evenodd" clip-rule="evenodd"
      d="M6.08405 8.70211C6.46796 8.31276 6.46796 7.68724 6.08405 7.29789L0.548089 1.68345C0.244148 1.3752 0.244148 0.879981 0.548089 0.571731C0.858141 0.257283 1.36551 0.257283 1.67557 0.571731L8.3077 7.29789C8.69161 7.68724 8.69162 8.31276 8.3077 8.70211L1.67557 15.4283C1.36551 15.7427 0.858141 15.7427 0.548089 15.4283C0.244148 15.12 0.244148 14.6248 0.548089 14.3166L6.08405 8.70211Z">
    </path>
  </symbol>
  <symbol fill="currentColor" xmlns="http://www.w3.org/2000/svg" viewBox="0 0 23 24" id="instagram">
    <path d="M11.5193 5.5625C8.20916 5.5625 5.51562 8.22707 5.51562 11.5026C5.51562 14.7777 8.20878 17.4423 11.5193 17.4423C14.8294 17.4423 17.5229 14.7777 17.5229 11.5026C17.5229 8.22707 14.8294 5.5625 11.5193 5.5625ZM11.5193 15.2555C9.41448 15.2555 7.70243 13.5716 7.70243 11.5026C7.70243 9.43314 9.41448 7.74968 11.5193 7.74968C13.6237 7.74968 15.3361 9.43314 15.3361 11.5026C15.3361 13.572 13.6241 15.2555 11.5193 15.2555Z"></path>
    <path d="M16.3798 0H6.62023C2.97004 0 0 2.96966 0 6.62023V16.4693C0 20.1195 2.96966 23.0895 6.62023 23.0895H16.3798C20.0303 23.0895 23 20.1195 23 16.4693V6.62023C23 2.97004 20.0303 0 16.3798 0ZM20.8091 16.4693C20.8091 18.9115 18.822 20.8986 16.3798 20.8986H6.62023C4.17799 20.8986 2.19094 18.9115 2.19094 16.4693V6.62023C2.19094 4.17799 4.17799 2.19094 6.62023 2.19094H16.3798C18.822 2.19094 20.8091 4.17799 20.8091 6.62023V16.4693Z"></path>
    <path d="M17.6294 6.73243C18.4096 6.73243 19.042 6.09999 19.042 5.31983C19.042 4.53967 18.4096 3.90723 17.6294 3.90723C16.8492 3.90723 16.2168 4.53967 16.2168 5.31983C16.2168 6.09999 16.8492 6.73243 17.6294 6.73243Z"></path>
  </symbol>
  <symbol fill="currentColor" xmlns="http://www.w3.org/2000/svg" viewBox="0 0 23 23" id="close">
    <rect x="1" y="20" width="28" height="3" rx="1" transform="rotate(-45 1 20)"></rect>
    <rect x="3" width="28" height="3" rx="1" transform="rotate(45 3 0)"></rect>
  </symbol>
  <symbol fill="currentColor" xmlns="http://www.w3.org/2000/svg" viewBox="0 0 133 69" id="eye-zoom-in">
    <path fill-rule="evenodd" clip-rule="evenodd" d="M131.962 31.7212C131.982 31.7435 131.999 31.7625 132.013 31.7782C133.329 33.3966 133.329 35.7505 132.013 37.2217C131.999 37.2375 131.982 37.2565 131.962 37.2788C130.126 39.3381 103.68 69 66.5 69C29.3201 69 2.87418 39.3383 1.03802 37.2788C1.01815 37.2565 1.00117 37.2375 0.987081 37.2217C-0.329027 35.7505 -0.329027 33.3966 0.987081 31.7782C1.04596 31.719 1.15547 31.6015 1.31433 31.431C4.70646 27.7902 30.5991 0 66.5 0C103.68 0 130.126 29.6619 131.962 31.7212ZM27.3569 34.5736C27.3569 26.7761 31.6963 19.5672 35.7908 13.5352C22.0448 20.4499 11.5159 29.8657 6.98268 34.5736C11.5159 39.2814 22.0448 48.6972 35.7908 55.6119C31.6963 49.58 27.3569 42.371 27.3569 34.5736ZM105.643 34.5736C105.643 42.371 101.304 49.58 97.2092 55.6119C110.955 48.6972 121.484 39.2814 126.017 34.5736C121.338 30.0128 110.809 20.4499 97.2092 13.5352C101.304 19.5672 105.643 26.7761 105.643 34.5736ZM44.3889 31.3445C41.1294 31.9074 41.1294 36.6167 44.3889 37.1796L47.7005 37.7514C55.7023 39.1333 62.1747 45.0707 64.2792 52.9596C64.902 55.2944 68.1949 55.2944 68.8177 52.9596C70.9221 45.0707 77.3946 39.1333 85.3964 37.7515L88.708 37.1796C91.9675 36.6167 91.9675 31.9074 88.708 31.3445L85.3964 30.7726C77.3946 29.3908 70.9222 23.4534 68.8177 15.5645C68.1949 13.2297 64.902 13.2297 64.2792 15.5645C62.1747 23.4534 55.7022 29.3908 47.7004 30.7727L44.3889 31.3445Z"></path>
  </symbol>
  <symbol fill="currentColor" xmlns="http://www.w3.org/2000/svg" viewBox="0 0 133 69" id="eye-watch">
    <path fill-rule="evenodd" clip-rule="evenodd" d="M132.013 31.7782L131.962 31.7212C130.126 29.6619 103.68 0 66.5 0C30.5991 0 4.70645 27.7903 1.31433 31.431C1.15547 31.6015 1.04596 31.719 0.987081 31.7782C-0.329027 33.3966 -0.329027 35.7505 0.987081 37.2217L1.03802 37.2788C2.87417 39.3383 29.3201 69 66.5 69C103.68 69 130.126 39.3381 131.962 37.2788L132.013 37.2217C133.329 35.7505 133.329 33.3966 132.013 31.7782ZM35.7908 13.5352C31.6963 19.5672 27.3569 26.7761 27.3569 34.5736C27.3569 42.371 31.6963 49.58 35.7908 55.6119C22.0448 48.6972 11.5159 39.2814 6.98268 34.5736C11.5159 29.8657 22.0448 20.4499 35.7908 13.5352ZM97.2092 55.6119C101.304 49.58 105.643 42.371 105.643 34.5736C105.643 26.7761 101.304 19.5672 97.2092 13.5352C110.809 20.4499 121.338 30.0128 126.017 34.5736C121.484 39.2814 110.955 48.6972 97.2092 55.6119ZM66.9856 48.2812C79.1334 48.2812 88.9811 41.9765 88.9811 34.1992C88.9811 26.4219 79.1334 20.1172 66.9856 20.1172C54.8379 20.1172 44.9902 26.4219 44.9902 34.1992C44.9902 41.9765 54.8379 48.2812 66.9856 48.2812Z"></path>
  </symbol>
  <symbol fill="currentColor" xmlns="http://www.w3.org/2000/svg" viewBox="0 0 65 59" id="monitor">
    <path d="M60.7291 1H4.27089C2.46759 1 1 2.49005 1 4.32138V41.7612C1 43.5925 2.46759 45.0825 4.27089 45.0825H18.9403C18.6717 53.2473 13.3599 56.1458 12.4601 56.5747H8.10498C7.71718 56.5747 7.40339 56.8937 7.40339 57.2872C7.40339 57.6806 7.71718 57.9997 8.10498 57.9997H12.6075L12.6098 58L12.6115 57.9997H52.3885L52.3902 58L52.3925 57.9997H56.895C57.2828 57.9997 57.5966 57.6806 57.5966 57.2872C57.5966 56.8937 57.2828 56.5747 56.895 56.5747H52.5441C51.7097 56.1687 46.3338 53.2137 46.0605 45.0825H60.7291C62.5324 45.0825 64 43.5925 64 41.7612V4.32138C64 2.49005 62.5324 1 60.7291 1ZM49.9325 56.5747H15.0675C17.2106 54.8701 20.1696 51.3835 20.3567 45.0825H44.6433C44.8304 51.3835 47.7894 54.8701 49.9325 56.5747ZM62.5968 41.7612C62.5968 42.8069 61.7589 43.6575 60.7291 43.6575H4.27089C3.24112 43.6575 2.40318 42.8069 2.40318 41.7612V4.32138C2.40318 3.2756 3.24112 2.42499 4.27089 2.42499H60.7291C61.7589 2.42499 62.5968 3.2756 62.5968 4.32138V41.7612Z" stroke="#AAAAAA" stroke-width="0.7"></path>
  </symbol>
  <symbol fill="currentColor" xmlns="http://www.w3.org/2000/svg" viewBox="0 0 80 46" id="eye">
    <path fill-rule="evenodd" clip-rule="evenodd" d="M40 18.4019C40 15.9746 41.9775 14 44.4087 14C46.8394 14 48.8169 15.9746 48.8169 18.4019C48.8169 20.8291 46.8394 22.8037 44.4087 22.8037C41.9775 22.8037 40 20.8291 40 18.4019ZM42 18.4019C42 19.7261 43.0806 20.8037 44.4087 20.8037C45.7368 20.8037 46.8169 19.7261 46.8169 18.4019C46.8169 17.0776 45.7368 16 44.4087 16C43.0806 16 42 17.0776 42 18.4019Z"></path>
    <path fill-rule="evenodd" clip-rule="evenodd" d="M41.2575 0.0410767C52.1571 0.4646 61.8708 6.2652 68.1906 11.1743C75.2614 16.666 79.6012 22.0771 79.7823 22.3047C80.0729 22.6694 80.0729 23.186 79.7823 23.5508C79.6012 23.7783 75.2614 29.189 68.1906 34.6812C62.5242 39.0827 54.1295 44.2049 44.5986 45.5242C43.0896 45.8356 41.5274 46 39.9274 46C38.217 46 36.5517 45.8073 34.9467 45.4527C25.6045 44.0356 17.3854 39.0123 11.8097 34.6812C4.73889 29.189 0.399048 23.7783 0.217895 23.5508C-0.0726318 23.186 -0.0726318 22.6694 0.217895 22.3047C0.399048 22.0771 4.73889 16.666 11.8097 11.1743C18.0803 6.30341 27.6917 0.552673 38.4878 0.0494385C38.9644 0.0199585 39.4435 0 39.9274 0C39.9342 0 39.9411 0.000259399 39.9479 0.000518799C39.9547 0.000778198 39.9615 0.0010376 39.9684 0.0010376C39.9737 0.0010376 39.979 0.000778198 39.9843 0.000518799C39.9895 0.000259399 39.9948 0 40.0001 0C40.044 0 40.0874 0.00205631 40.1308 0.00411279C40.1703 0.00598565 40.2099 0.00785865 40.2498 0.00817871C40.5872 0.0128784 40.9236 0.0220337 41.2575 0.0410767ZM40.0001 43.855C41.4155 43.855 42.8118 43.7507 44.1863 43.5665C53.7534 41.5957 60.9684 33.1236 60.9684 23C60.9684 11.4301 51.5448 2.01721 39.9561 2.00146C39.9275 2.00153 39.8992 2.00287 39.8709 2.00422C39.844 2.0055 39.8171 2.00678 39.7899 2.00696C28.2516 2.08191 18.8864 11.4667 18.8864 23C18.8864 33.0397 25.986 41.4454 35.4349 43.5064C36.9318 43.7246 38.4537 43.855 40.0001 43.855ZM2.30237 22.9277C3.65198 24.5068 7.54749 28.8442 13.0739 33.1309C16.2065 35.5605 20.1998 38.2207 24.7513 40.2845C19.9353 36.0658 16.8864 29.8834 16.8864 23C16.8864 15.9551 20.0788 9.64325 25.092 5.4209C20.3998 7.50494 16.2841 10.2346 13.0739 12.7246C7.54749 17.0112 3.65198 21.3486 2.30237 22.9277ZM54.9519 40.4155C59.6262 38.334 63.726 35.613 66.9264 33.1309C72.4528 28.8442 76.3483 24.5068 77.6979 22.9277C76.3483 21.3486 72.4528 17.0112 66.9264 12.7246C63.6514 10.1843 59.4317 7.39722 54.621 5.29822C59.7169 9.52045 62.9684 15.888 62.9684 23C62.9684 29.9552 59.8553 36.1945 54.9519 40.4155Z"></path>
  </symbol>
  <symbol fill="currentColor" xmlns="http://www.w3.org/2000/svg" viewBox="0 0 19 34" id="arrow-right">
    <path fill-rule="evenodd" clip-rule="evenodd" d="M13.6201 17.6998C14.001 17.311 14.001 16.689 13.6201 16.3002L0.685483 3.0959C0.304635 2.70711 0.304635 2.08514 0.685484 1.69635L1.63283 0.729258C2.02495 0.328957 2.66943 0.328956 3.06156 0.729257L18.3145 16.3002C18.6954 16.689 18.6954 17.311 18.3145 17.6998L3.06156 33.2707C2.66943 33.671 2.02495 33.671 1.63283 33.2707L0.685483 32.3036C0.304635 31.9149 0.304636 31.2929 0.685484 30.9041L13.6201 17.6998Z"></path>
  </symbol>
  <symbol fill="currentColor" xmlns="http://www.w3.org/2000/svg" viewBox="0 0 19 34" id="arrow-left">
    <path fill-rule="evenodd" clip-rule="evenodd" d="M5.37987 17.6998C4.99902 17.311 4.99902 16.689 5.37987 16.3002L18.3145 3.0959C18.6954 2.70711 18.6954 2.08514 18.3145 1.69635L17.3672 0.729258C16.975 0.328957 16.3306 0.328956 15.9384 0.729257L0.685483 16.3002C0.304635 16.689 0.304633 17.311 0.685481 17.6998L15.9384 33.2707C16.3306 33.671 16.975 33.671 17.3672 33.2707L18.3145 32.3036C18.6954 31.9149 18.6954 31.2929 18.3145 30.9041L5.37987 17.6998Z"></path>
  </symbol>
</svg>