<?xml version="1.0" standalone="no"?>
<!DOCTYPE svg PUBLIC "-//W3C//DTD SVG 20010904//EN"
 "http://www.w3.org/TR/2001/REC-SVG-20010904/DTD/svg10.dtd">
<svg version="1.0" xmlns="http://www.w3.org/2000/svg"
 width="1024.000000pt" height="1024.000000pt" viewBox="0 0 1024.000000 1024.000000"
 preserveAspectRatio="xMidYMid meet">
<metadata>
Created by potrace 1.14, written by Peter Selinger 2001-2017
</metadata>
<g transform="translate(0.000000,1024.000000) scale(0.100000,-0.100000)"
fill="#000000" stroke="none">
<path d="M555 10225 c-140 -31 -251 -92 -349 -191 -77 -76 -134 -169 -173
-279 l-28 -80 0 -4555 0 -4555 27 -78 c74 -217 233 -377 453 -454 l80 -28
4555 0 4555 0 78 27 c217 74 377 233 454 453 l28 80 0 4555 0 4555 -27 78
c-74 217 -233 377 -453 454 l-80 28 -4530 2 c-3761 1 -4540 -1 -4590 -12z
m4835 -1915 c878 -41 1420 -161 1930 -427 241 -126 395 -239 576 -424 392
-403 614 -928 686 -1624 19 -193 16 -810 -5 -1036 -106 -1096 -472 -1812
-1156 -2263 -429 -283 -974 -437 -1687 -476 -133 -7 -742 -10 -1829 -8 l-1630
3 -33 23 c-18 13 -41 41 -52 63 -20 38 -20 65 -18 3056 l3 3018 23 33 c13 18
40 41 60 52 36 19 72 19 1477 20 823 0 1532 -4 1655 -10z"/>
<path d="M3130 7511 c-19 -10 -45 -36 -57 -57 l-23 -39 0 -2230 c0 -2153 1
-2232 19 -2265 10 -19 36 -45 57 -58 l39 -22 1205 3 c1294 4 1288 3 1620 58
789 129 1277 483 1504 1091 159 427 221 1272 136 1858 -86 587 -317 985 -735
1262 -340 226 -861 364 -1530 408 -93 6 -587 10 -1180 10 -974 0 -1022 -1
-1055 -19z"/>
</g>
</svg>
